# xmcd
#
# Track frame offsets: 
#        150
#        24035
#        37029
#        60141
#        79571
#        98934
#        122665
#        145608
#        163871
#        195779
#        227701
#
# Disc length: 4087 seconds
#
# Revision: 2
# Processed by: cddbd v1.5.2PL0 Copyright (c) Steve Scherf et al.
# Submitted via: ExactAudioCopy v0.99pb5
#
DISCID=770ff50b
DTITLE=Kitaro - Best of Silk Road
DYEAR=2003
DGENRE=Ambient
TTITLE0=Theme from Silk Road
TTITLE1=Bell Tower
TTITLE2=Flying Celestial Nymphs
TTITLE3=Mirage
TTITLE4=Linden
TTITLE5=40080
TTITLE6=Taklamakan Desert
TTITLE7=Lord of Wind
TTITLE8=Caravansaray
TTITLE9=Moon-Star
TTITLE10=Pray at Xian/Mercury
EXTD=YEAR: 2003
EXTT0=
EXTT1=
EXTT2=
EXTT3=
EXTT4=
EXTT5=
EXTT6=
EXTT7=
EXTT8=
EXTT9=
EXTT10=
PLAYORDER=
